<svg width="24" height="24" viewBox="0 0 24 24" fill="none" xmlns="http://www.w3.org/2000/svg">
<path d="M12.8333 10.6667V15.3333M10.1666 10.6667V15.3333M7.49996 8V15.8667C7.49996 16.6134 7.49996 16.9865 7.64528 17.2717C7.77312 17.5226 7.97694 17.727 8.22782 17.8548C8.51276 18 8.88596 18 9.63123 18H13.3687C14.114 18 14.4866 18 14.7716 17.8548C15.0224 17.727 15.2269 17.5226 15.3548 17.2717C15.5 16.9868 15.5 16.614 15.5 15.8687V8M7.49996 8H8.83329M7.49996 8H6.16663M8.83329 8H14.1666M8.83329 8C8.83329 7.37874 8.83329 7.06827 8.93479 6.82324C9.07011 6.49654 9.32951 6.23682 9.65621 6.10149C9.90124 6 10.212 6 10.8333 6H12.1666C12.7879 6 13.0985 6 13.3435 6.10149C13.6702 6.23682 13.9297 6.49654 14.0651 6.82324C14.1666 7.06827 14.1666 7.37875 14.1666 8M14.1666 8H15.5M15.5 8H16.8333" stroke="#958B8A" stroke-linecap="round" stroke-linejoin="round"/>
</svg>
